<?xml version="1.0" standalone="no"?>
<!DOCTYPE svg PUBLIC "-//W3C//DTD SVG 20010904//EN"
 "http://www.w3.org/TR/2001/REC-SVG-20010904/DTD/svg10.dtd">
<svg version="1.0" xmlns="http://www.w3.org/2000/svg"
 width="512.000000pt" height="512.000000pt" viewBox="0 0 512.000000 512.000000"
 preserveAspectRatio="xMidYMid meet">
<metadata>
Created by potrace 1.11, written by Peter Selinger 2001-2013
</metadata>
<g transform="translate(0.000000,512.000000) scale(0.100000,-0.100000)"
fill="#000000" stroke="none">
<path d="M2423 5104 c-149 -39 -299 -171 -439 -386 -50 -77 -173 -313 -192
-368 -9 -24 -16 -31 -29 -27 -10 3 -70 23 -133 46 -112 39 -239 74 -310 85
-19 3 -46 8 -60 12 -60 14 -258 12 -331 -2 -233 -48 -338 -198 -337 -481 0
-213 63 -469 185 -751 3 -7 -10 -18 -33 -28 -33 -13 -148 -70 -234 -116 -66
-34 -208 -137 -272 -196 -272 -252 -258 -472 47 -728 93 -78 178 -131 335
-212 80 -40 146 -75 148 -76 1 -2 -14 -45 -34 -97 -59 -154 -91 -264 -130
-454 -3 -16 -8 -91 -9 -165 -5 -189 26 -296 112 -388 84 -89 189 -125 373
-126 112 0 168 7 317 38 91 19 336 99 359 118 15 11 25 -3 53 -72 36 -85 128
-257 183 -340 243 -363 496 -471 738 -315 152 99 313 311 446 588 45 95 60
117 73 112 105 -43 303 -108 371 -121 14 -3 41 -9 60 -14 100 -24 307 -34 388
-18 26 5 58 12 72 14 49 10 142 68 185 116 133 148 142 439 23 823 -16 55 -43
133 -59 173 -16 40 -29 74 -29 76 0 2 15 9 33 16 17 7 84 39 147 70 505 249
719 543 588 810 -96 195 -342 386 -702 544 -47 21 -57 29 -51 43 78 193 135
403 150 548 11 117 7 241 -10 295 -3 10 -8 29 -10 41 -9 48 -57 128 -99 167
-51 47 -120 84 -191 102 -60 15 -245 20 -318 9 -29 -5 -67 -11 -86 -14 -63
-10 -276 -67 -316 -85 -11 -4 -49 -19 -85 -32 l-65 -24 -85 171 c-101 203
-179 321 -280 428 -158 168 -308 230 -457 191z m190 -105 c157 -62 325 -268
477 -580 33 -68 60 -129 60 -135 0 -6 -35 -28 -77 -48 -163 -78 -350 -199
-526 -339 l-36 -28 -78 62 c-117 93 -303 212 -440 282 -75 38 -123 68 -123 77
0 26 143 301 205 395 78 117 222 263 295 298 94 46 159 50 243 16z m-1398
-623 c85 -10 186 -32 285 -62 86 -26 240 -83 240 -89 0 -1 -18 -58 -40 -125
-68 -212 -115 -465 -119 -652 -1 -16 -4 -27 -8 -26 -5 1 -37 -2 -73 -6 -36 -5
-72 -10 -80 -11 -19 -2 -112 -18 -125 -20 -86 -20 -237 -62 -316 -90 -56 -19
-103 -35 -105 -35 -11 0 -127 307 -139 368 -1 9 -8 35 -13 57 -6 22 -13 56
-16 75 -3 19 -8 46 -11 60 -11 48 -13 238 -3 291 40 220 203 302 523 265z
m2833 -1 c162 -24 253 -110 280 -264 10 -57 9 -203 -2 -286 -20 -143 -127
-495 -150 -495 -7 0 -58 15 -114 34 -56 19 -102 33 -102 31 0 -3 -12 0 -27 6
-30 11 -189 48 -237 54 -15 3 -35 6 -45 9 -9 3 -52 8 -96 12 -81 6 -116 11
-120 16 -1 2 -5 35 -8 73 -18 202 -50 353 -118 557 -16 48 -29 92 -29 97 0 5
19 16 43 24 23 8 74 27 112 41 123 45 312 87 445 99 39 3 116 0 168 -8z
m-2088 -251 c60 -30 125 -66 145 -80 20 -13 39 -24 42 -24 3 0 28 -16 54 -35
27 -19 53 -35 58 -35 5 0 11 -3 13 -7 2 -5 32 -30 68 -58 103 -79 104 -81 83
-109 -81 -104 -112 -150 -146 -219 -21 -44 -40 -85 -41 -91 -2 -6 -8 -30 -15
-54 -11 -39 -22 -98 -24 -129 0 -7 -5 -9 -11 -6 -6 4 -29 18 -51 31 -97 61
-266 111 -385 116 -84 3 -81 -6 -65 159 18 198 120 597 153 597 8 0 62 -25
122 -56z m1267 -54 c38 -121 81 -292 88 -353 3 -23 7 -53 10 -67 3 -14 7 -56
10 -93 5 -77 8 -74 -80 -81 -119 -10 -286 -71 -389 -141 -21 -14 -39 -25 -40
-23 -2 2 -12 41 -24 88 -34 130 -91 240 -185 353 -23 28 -36 52 -30 55 15 11
107 86 113 93 3 4 57 40 120 82 135 88 339 198 360 194 9 -1 27 -42 47 -107z
m-603 -490 c51 -84 92 -192 101 -266 4 -27 8 -56 11 -64 2 -8 -6 -27 -19 -41
-62 -73 -81 -100 -121 -169 -24 -41 -54 -103 -67 -137 l-23 -61 -28 65 c-22
54 -98 184 -118 203 -3 3 -21 23 -41 46 -33 38 -36 45 -32 90 10 111 54 244
114 344 24 39 88 121 104 132 13 10 64 -51 119 -142z m711 -233 c-3 -23 -7
-60 -10 -82 -16 -120 -98 -287 -188 -382 -24 -25 -39 -33 -66 -33 -52 -1 -195
-34 -275 -64 -37 -14 -69 -26 -70 -26 -2 0 10 26 25 58 36 75 66 191 74 288 6
77 7 80 48 117 95 84 301 163 435 165 32 0 32 0 27 -41z m340 17 c50 -8 108
-20 130 -26 22 -5 49 -12 59 -14 35 -7 261 -77 269 -84 4 -3 -13 -49 -39 -101
-90 -185 -218 -379 -322 -491 l-35 -36 -21 20 c-93 90 -328 201 -451 212 -24
2 -22 18 9 60 36 47 81 135 109 212 14 38 25 71 25 74 0 3 4 23 8 45 8 46 12
76 13 124 l1 33 78 -6 c42 -4 118 -13 167 -22z m-1899 -38 c110 -9 210 -40
304 -97 102 -60 108 -67 115 -129 9 -77 30 -168 55 -231 11 -30 20 -57 20 -62
0 -4 -16 -1 -35 7 -85 36 -237 68 -323 69 -26 0 -41 9 -67 40 -68 79 -144 258
-158 369 -5 40 -2 49 16 43 7 -2 39 -6 73 -9z m-185 -19 c0 -12 2 -29 4 -37 2
-8 6 -31 10 -50 17 -93 95 -270 142 -322 18 -20 16 -21 -62 -38 -53 -11 -186
-60 -195 -71 -3 -3 -21 -14 -40 -24 -36 -19 -116 -76 -160 -115 l-25 -22 -38
44 c-20 23 -64 81 -97 128 -33 47 -64 90 -70 97 -5 7 -10 15 -10 18 0 3 -12
24 -26 46 -14 23 -45 79 -70 125 l-44 84 27 11 c76 29 133 47 133 42 0 -3 6
-1 13 5 6 5 28 13 47 18 19 4 40 9 45 10 88 23 188 46 220 51 22 3 57 8 78 12
22 3 57 7 78 8 34 2 39 0 40 -20z m2685 -123 c76 -31 255 -125 326 -170 167
-108 278 -215 335 -326 28 -55 32 -71 30 -133 -3 -99 -38 -166 -147 -275 -122
-123 -307 -241 -542 -344 l-57 -25 -65 125 c-92 177 -176 302 -322 481 -25 31
-25 32 -7 51 32 33 68 76 106 127 20 28 40 55 45 60 29 36 142 227 192 327 34
65 62 118 64 118 2 0 21 -7 42 -16z m-3429 -96 c11 -24 43 -81 70 -128 27 -47
56 -96 64 -110 7 -14 16 -27 19 -30 3 -3 19 -25 35 -49 17 -25 60 -83 97 -129
l67 -84 -21 -22 c-83 -88 -241 -327 -329 -498 -18 -38 -39 -68 -45 -68 -6 0
-57 22 -112 50 -367 180 -581 397 -550 558 13 73 49 132 128 212 85 86 192
164 325 236 99 54 204 103 221 104 5 0 19 -19 31 -42z m1866 -90 c-24 -103
-120 -308 -144 -308 -17 0 49 196 92 277 61 114 73 120 52 31z m-356 -58 c32
-60 72 -160 79 -199 3 -14 7 -29 10 -35 3 -6 -4 0 -16 14 -40 45 -98 175 -120
269 -11 45 6 27 47 -49z m-481 -185 c76 -70 236 -162 309 -181 32 -8 32 -20
-1 -28 -72 -19 -285 -144 -314 -186 -10 -14 -49 -30 -62 -26 -7 3 -31 7 -53
10 -105 14 -231 68 -338 147 -71 52 -89 76 -66 89 8 5 25 18 39 30 77 69 203
132 316 158 115 27 125 27 170 -13z m264 -7 c69 -22 205 -90 230 -115 13 -13
12 -14 -15 -9 -95 16 -188 52 -300 115 -22 13 -44 27 -50 32 -14 14 58 1 135
-23z m1195 -15 c33 -9 94 -33 136 -53 72 -35 180 -108 193 -129 10 -15 -102
-97 -189 -140 -123 -59 -282 -95 -309 -69 -66 66 -223 165 -308 196 -27 9 -48
19 -48 22 0 3 28 16 61 28 76 30 162 80 226 131 47 40 49 40 113 35 36 -3 92
-13 125 -21z m-470 -43 c-44 -21 -96 -41 -115 -44 l-35 -7 40 23 c49 27 154
67 175 67 8 -1 -21 -18 -65 -39z m-490 -200 c-3 -5 -12 -10 -20 -10 -7 0 -15
-3 -17 -8 -8 -19 -268 -133 -268 -117 0 2 -11 0 -24 -5 -38 -14 -38 0 -1 26
93 63 354 153 330 114z m394 -22 c87 -26 251 -111 239 -124 -21 -21 -358 118
-358 148 0 10 31 4 119 -24z m-1464 -10 c44 -41 114 -86 195 -126 105 -51 105
-51 202 -74 l58 -13 -25 -37 c-75 -110 -144 -305 -145 -407 l0 -34 -73 7 c-41
4 -85 9 -98 11 -114 22 -257 55 -309 72 -8 2 -15 4 -15 3 0 -3 -151 52 -172
62 -23 11 -23 11 33 117 86 159 196 325 283 423 25 28 32 28 66 -4z m2490 -40
c68 -78 205 -287 275 -420 l62 -118 -29 -11 c-142 -56 -427 -120 -600 -135
l-73 -7 -1 39 c-1 43 -7 90 -24 169 -13 61 -67 183 -110 250 -37 58 -36 62 16
69 13 2 31 6 39 9 8 2 44 15 80 27 96 33 261 131 285 170 13 20 35 9 80 -42z
m-1188 -35 c44 -73 81 -163 103 -249 11 -42 18 -79 17 -81 -5 -5 -69 102 -94
157 -36 78 -74 220 -60 220 3 0 18 -21 34 -47z m-187 -80 c-24 -76 -103 -230
-108 -214 -9 26 71 224 111 279 20 26 19 1 -3 -65z m-135 8 c-45 -89 -90 -258
-94 -358 -1 -18 -117 -96 -186 -125 -82 -34 -177 -57 -255 -60 l-65 -3 2 45
c7 114 87 308 160 387 36 39 42 42 108 47 39 3 86 8 105 12 45 7 175 51 209
69 14 8 27 14 29 15 1 0 -4 -13 -13 -29z m570 -26 c87 -29 149 -41 240 -46 45
-2 66 -21 122 -107 59 -91 103 -219 117 -340 5 -43 3 -54 -10 -59 -9 -3 -63 3
-120 14 -120 24 -264 89 -331 150 -40 37 -42 40 -47 113 -6 79 -33 200 -60
265 -20 47 -20 49 2 40 9 -4 49 -18 87 -30z m-315 -94 c36 -92 112 -213 176
-278 25 -25 24 -50 -3 -163 -27 -113 -86 -224 -176 -332 l-40 -48 -48 63 c-91
116 -157 285 -161 413 -2 54 0 62 30 94 67 71 182 267 182 310 0 24 17 -1 40
-59z m-1588 -380 c136 -48 274 -86 383 -105 17 -3 41 -8 55 -11 31 -6 126 -17
163 -19 15 0 27 -3 27 -6 1 -3 3 -36 5 -75 5 -73 13 -146 20 -180 3 -11 7 -36
9 -55 9 -60 63 -271 95 -368 17 -52 31 -95 31 -97 0 -2 -35 -15 -77 -30 -43
-15 -87 -31 -98 -36 -67 -28 -253 -72 -362 -84 -136 -16 -287 0 -363 40 -156
80 -195 311 -115 662 27 115 126 393 141 393 1 0 40 -13 86 -29z m1246 2 c-4
-16 15 -111 34 -168 31 -94 83 -194 142 -270 l54 -69 -78 -61 c-42 -33 -87
-67 -100 -75 -12 -8 -32 -22 -44 -31 -39 -29 -211 -127 -294 -167 l-81 -40
-20 51 c-25 68 -56 175 -77 262 -21 91 -23 103 -30 145 -3 19 -7 45 -9 58 -2
13 -7 53 -11 90 -3 37 -7 77 -9 89 -3 35 6 40 85 47 41 3 82 7 90 9 101 22
150 39 235 83 105 54 116 59 113 47z m676 -33 c61 -42 236 -119 253 -112 2 0
16 -3 33 -8 29 -8 112 -21 155 -24 16 -1 20 -8 21 -36 1 -49 -22 -211 -45
-316 -35 -154 -104 -374 -118 -374 -3 0 -55 26 -116 58 -132 67 -328 196 -426
278 l-70 59 28 30 c106 113 204 301 226 433 4 23 9 42 12 42 2 0 24 -13 47
-30z m1328 -69 c148 -374 176 -731 68 -880 -115 -158 -423 -167 -833 -25 -56
19 -117 40 -134 46 -18 6 -33 16 -33 22 0 6 11 43 25 81 40 108 92 309 111
430 3 17 7 41 10 55 2 14 7 61 11 105 3 44 7 81 8 83 4 4 43 10 110 16 155 14
298 45 475 101 74 23 139 42 144 41 5 -1 22 -35 38 -75z m-1627 -543 c22 -21
44 -38 48 -38 5 0 16 -8 25 -17 9 -9 64 -47 122 -85 58 -37 110 -71 115 -76 6
-4 62 -34 125 -66 63 -32 119 -62 124 -67 10 -9 -87 -214 -151 -319 -71 -115
-129 -188 -208 -265 -150 -145 -280 -172 -423 -89 -71 41 -201 177 -275 287
-70 104 -210 379 -205 401 2 7 60 43 130 79 141 73 318 186 423 270 78 63 64
65 150 -15z"/>
</g>
</svg>
